# Blender 5.1.2
# www.blender.org
mtllib guy.mtl
o Cube
v -0.666667 -1.500000 0.997268
v -0.666667 1.000000 0.830601
v -0.666667 -1.500000 -1.002732
v -0.666667 1.000000 -0.836066
v 0.666667 -1.500000 0.997268
v 0.666667 1.000000 0.830601
v 0.666667 -1.500000 -1.002732
v 0.666667 1.000000 -0.836066
v -0.818182 -1.727273 -0.013413
v -1.000000 1.000000 -0.010929
v 0.818182 -1.727273 -0.013413
v 1.000000 1.000000 -0.010929
v -0.500000 -4.750000 1.495902
v 0.500000 -4.750000 1.495902
v -0.500000 -4.750000 0.987705
v 0.500000 -4.750001 0.987705
v -0.500000 -4.750000 -1.504098
v 0.500000 -4.750000 -1.504098
v -0.500000 -4.750001 -1.012295
v 0.500000 -4.750000 -1.012295
v -0.760000 2.640000 1.478033
v -0.760000 2.640000 -1.481967
v 0.760000 2.640000 1.478033
v 0.760000 2.640000 -1.481967
v -1.000000 2.833334 -0.010929
v 1.000000 2.833334 -0.010929
v -0.760000 3.676000 1.478033
v -0.760000 3.676000 -1.481967
v 0.760000 3.676000 1.478033
v 0.760000 3.676000 -1.481967
v -1.000000 3.883333 -0.010929
v 1.000000 3.883333 -0.010929
v -0.500000 1.750000 4.750001
v 0.500000 1.750000 4.750000
v -0.500000 2.250000 4.750000
v 0.500000 2.250000 4.750000
v -0.500000 1.750000 -4.750000
v 0.500000 1.750000 -4.750000
v -0.500000 2.250000 -4.750001
v 0.500000 2.250000 -4.750000
v -0.566667 4.273808 0.705191
v -0.566667 4.273808 -0.711475
v 0.566667 4.273807 0.705191
v 0.566667 4.273807 -0.711475
v -0.850000 4.273807 -0.010109
v 0.850000 4.273808 -0.010109
v -0.218889 4.435701 0.267650
v -0.218889 4.435702 -0.276794
v 0.218889 4.435701 0.267650
v 0.218889 4.435701 -0.276794
v -0.328333 4.435702 -0.007250
v 0.328333 4.435701 -0.007250
v -0.327778 4.759509 0.398634
v -0.327778 4.759509 -0.406922
v 0.327778 4.759509 0.398634
v 0.327778 4.759509 -0.406922
v -0.491667 4.759509 -0.008106
v 0.491667 4.759509 -0.008106
v -0.285000 5.592842 0.415301
v -0.285000 5.592842 -0.424699
v 0.285000 5.592842 0.415301
v 0.285000 5.592842 -0.424699
v -0.380000 5.709508 -0.008525
v 0.380000 5.709508 -0.008525
v -0.939043 -1.507716 0.627252
v -0.666667 -0.062500 0.851434
v -0.958333 1.000000 -0.487022
v -0.666667 -0.062500 -0.856899
v -0.000000 -1.500000 -1.125683
v -0.000000 1.000000 -0.959016
v 0.666667 -0.062500 -0.856899
v 0.939043 -1.507716 -0.643582
v 0.958333 1.000000 0.471312
v 0.666667 -0.062500 0.851435
v 0.000000 -1.500000 1.124317
v 0.000000 1.000000 0.957650
v -0.939043 -1.507716 -0.643582
v -0.958333 1.000000 0.471312
v 0.939043 -1.507716 0.627252
v 0.958333 1.000000 -0.487022
v -0.676667 1.955973 -0.902789
v 0.000000 -2.487654 -0.015761
v 0.987654 -0.070216 -0.011182
v -0.987654 -0.070216 -0.011182
v -0.609568 -5.023920 1.296587
v -0.000000 -5.023920 1.606368
v 0.609568 -5.023920 1.296587
v -0.000000 -5.023920 0.986807
v 0.638117 -3.404321 1.305290
v 0.653549 -3.436343 0.625436
v -0.638117 -3.404321 1.305290
v -0.653549 -3.436343 0.625436
v 0.000000 -5.023920 -1.612768
v 0.609568 -5.023920 -1.312981
v -0.609568 -5.023920 -1.312981
v -0.000000 -5.023920 -1.013193
v -0.638117 -3.404321 -1.311222
v -0.653549 -3.436343 -0.652341
v 0.653549 -3.436343 -0.652341
v 0.638117 -3.404321 -1.311223
v -0.975278 2.813611 -0.553745
v -0.000000 2.398056 -1.759017
v 0.975278 2.813611 0.538199
v 0.000000 2.398056 1.758206
v -0.975278 2.813611 0.538199
v 0.975278 2.813611 -0.553746
v 1.000000 3.464583 -0.010929
v 0.676667 1.955973 -0.902789
v 1.000000 1.979167 -0.010929
v 0.676667 1.955973 0.897489
v -0.676667 1.955973 0.897489
v -1.000000 1.979167 -0.010929
v -0.975278 3.862111 -0.553745
v 0.000000 3.708945 -1.759017
v 0.975278 3.862111 0.538199
v -0.000000 3.708945 1.758206
v -0.975278 3.862112 0.538199
v 0.975278 3.862112 -0.553746
v 0.664167 4.114393 0.881812
v 0.950556 3.165653 1.624099
v -1.000000 3.464583 -0.010929
v -0.950556 3.165653 -1.629235
v 0.950556 3.165653 -1.629235
v -0.950556 3.165653 1.624099
v -0.000000 1.585648 5.023920
v -0.000000 2.195216 5.023920
v 0.609568 1.890432 5.023920
v -0.609568 1.890432 5.023920
v 0.648117 2.182825 3.408424
v -0.648117 2.182824 3.408424
v -0.648117 2.859372 3.408424
v 0.648117 2.859372 3.408424
v -0.000000 1.585648 -5.023920
v -0.000000 2.195216 -5.023920
v -0.609568 1.890432 -5.023920
v 0.609568 1.890432 -5.023920
v 0.648117 2.859372 -3.408830
v -0.648117 2.859372 -3.408829
v 0.648117 2.182824 -3.408829
v -0.648117 2.182824 -3.408830
v -0.814583 4.273807 -0.414788
v 0.000000 4.273808 -0.815984
v 0.814583 4.273807 0.399795
v 0.000000 4.273807 0.813183
v -0.814583 4.273808 0.399795
v 0.814583 4.273808 -0.414788
v -0.559792 4.367254 -0.008522
v -0.664167 4.114393 0.881813
v -0.664167 4.114392 -0.887216
v 0.664167 4.114393 -0.887215
v -0.981250 4.132143 -0.010826
v 0.981250 4.132143 -0.010826
v -0.314653 4.435701 -0.162773
v -0.000000 4.435702 -0.316958
v 0.314653 4.435702 0.150282
v 0.000000 4.435701 0.309153
v -0.314653 4.435701 0.150282
v 0.314653 4.435702 -0.162773
v -0.235833 4.519033 0.286113
v -0.373194 4.367254 -0.470255
v 0.373194 4.367255 -0.470255
v 0.559792 4.367255 -0.008522
v 0.373194 4.367254 0.462384
v -0.373194 4.367254 0.462384
v -0.471181 4.759509 -0.238217
v 0.000000 4.759508 -0.466348
v 0.471181 4.759508 0.224977
v -0.000000 4.759509 0.460041
v -0.471181 4.759508 0.224977
v 0.471181 4.759509 -0.238217
v 0.357199 5.225635 -0.454778
v -0.353750 4.519032 -0.007370
v 0.353750 4.519032 -0.007370
v 0.235833 4.519032 0.286113
v -0.235833 4.519033 -0.295137
v 0.235833 4.519032 -0.295137
v -0.363727 5.689523 -0.269186
v 0.000000 5.669540 -0.454876
v 0.363727 5.689525 0.255381
v 0.000000 5.669540 0.446483
v -0.363727 5.689524 0.255381
v 0.363727 5.689524 -0.269186
v 0.000000 5.884508 -0.008525
v 0.536459 5.240758 -0.008472
v 0.357199 5.225635 0.446595
v -0.357199 5.225635 0.446595
v -0.357199 5.225635 -0.454778
v -0.536458 5.240757 -0.008472
v -0.955247 -0.064429 -0.504446
v 0.000000 -0.062500 -0.979850
v 0.955247 -0.064429 0.488609
v 0.000000 -0.062500 0.978484
v 0.881945 -3.433256 0.979451
v 0.960833 1.975972 0.483693
v 0.000000 1.931111 -1.053142
v -0.881945 -3.433256 -0.995857
v 0.955247 -0.064429 -0.504446
v -0.955247 -0.064429 0.488609
v 0.000000 -5.598765 1.411557
v 0.000000 -3.431328 1.432643
v -0.000000 -3.532408 0.512371
v -0.881945 -3.433257 0.979451
v 0.000000 -5.598765 -1.427950
v 0.000000 -3.532408 -0.543185
v 0.000000 -3.431328 -1.434641
v 0.881945 -3.433257 -0.995857
v -0.991111 3.430042 -0.581148
v 0.991111 3.430042 0.565519
v 0.960833 1.975973 -0.499363
v -0.960833 1.975973 0.483693
v -0.960833 1.975972 -0.499362
v -0.000000 1.931111 1.051858
v 0.000000 4.111115 -1.035263
v 0.000000 4.111115 1.033800
v 0.991111 3.430042 -0.581148
v -0.000000 2.037593 3.455977
v -0.000000 2.962846 -3.456123
v -0.991111 3.430042 0.565519
v 0.000000 1.660494 5.598765
v -0.883087 2.512025 3.441860
v 0.883087 2.512025 3.441860
v 0.000000 2.962846 3.455977
v -0.000000 1.660494 -5.598765
v 0.883087 2.512025 -3.442461
v -0.000000 2.037593 -3.456123
v -0.883087 2.512025 -3.442461
v 0.536467 4.367255 -0.274936
v -0.536467 4.367254 -0.274936
v -0.942865 4.128574 0.474754
v 0.942865 4.128573 0.474754
v -0.942865 4.128573 -0.490333
v 0.942865 4.128573 -0.490333
v 0.339011 4.519032 0.160811
v -0.339011 4.519033 0.160811
v 0.000000 4.367254 0.533479
v 0.000000 4.367255 -0.539056
v -0.536467 4.367255 0.261331
v 0.536467 4.367255 0.261331
v -0.000000 5.233197 0.513670
v 0.513996 5.236978 -0.269034
v -0.339011 4.519032 -0.173408
v 0.339011 4.519032 -0.173408
v -0.000000 4.519032 0.330422
v 0.000000 4.519033 -0.338016
v 0.000000 5.857503 0.258456
v -0.000000 5.857502 -0.272162
v -0.000000 5.233197 -0.519690
v -0.513996 5.236978 0.255424
v 0.513996 5.236978 0.255424
v -0.513996 5.236978 -0.269034
vn -0.9959 -0.0626 0.0658
vn -0.9971 -0.0066 -0.0762
vn -0.7705 0.0103 -0.6373
vn -0.7844 0.0567 -0.6176
vn -0.1805 0.0993 -0.9786
vn -0.1813 0.0193 -0.9832
vn 0.1813 0.0193 -0.9832
vn 0.1805 0.0993 -0.9786
vn 0.9959 -0.0625 -0.0649
vn 0.9971 -0.0066 0.0753
vn 0.7795 0.0101 0.6263
vn 0.7932 0.0554 0.6064
vn 0.1863 0.0992 0.9775
vn 0.1872 0.0193 0.9821
vn -0.1872 0.0193 0.9821
vn -0.1863 0.0992 0.9775
vn 0.9437 -0.1394 -0.3001
vn 0.8024 0.0839 0.5908
vn 0.8248 -0.0176 0.5652
vn 0.8211 -0.2414 -0.5172
vn 0.8020 -0.0297 0.5966
vn 0.9966 -0.0018 0.0825
vn 0.9981 -0.0105 0.0609
vn 0.9294 -0.1914 0.3155
vn 0.2002 -0.0843 -0.9761
vn -0.2002 -0.0843 -0.9761
vn -0.3178 -0.7164 -0.6211
vn 0.3178 -0.7164 -0.6211
vn -0.9417 -0.1408 0.3056
vn -0.7934 0.0862 -0.6025
vn -0.8161 -0.0138 -0.5777
vn -0.8134 -0.2425 0.5287
vn 0.7844 0.0567 -0.6176
vn 0.7705 0.0103 -0.6373
vn 0.9971 -0.0066 -0.0762
vn 0.9959 -0.0626 0.0658
vn -0.7932 0.0554 0.6064
vn -0.7795 0.0101 0.6263
vn -0.9971 -0.0066 0.0753
vn -0.9959 -0.0625 -0.0649
vn -0.3690 -0.5800 -0.7262
vn 0.3690 -0.5800 -0.7262
vn 0.4269 -0.3349 0.8400
vn -0.4269 -0.3349 0.8400
vn 0.1860 0.1545 0.9703
vn -0.1860 0.1545 0.9703
vn -0.1745 0.1131 0.9781
vn 0.1745 0.1131 0.9781
vn -0.2942 -0.3878 -0.8736
vn 0.2942 -0.3878 -0.8736
vn 0.1858 -0.2902 -0.9388
vn -0.1858 -0.2902 -0.9388
vn -0.8024 0.0839 0.5908
vn -0.9437 -0.1394 -0.3001
vn -0.8211 -0.2414 -0.5172
vn -0.8248 -0.0176 0.5652
vn -0.4178 -0.3223 -0.8495
vn 0.4178 -0.3223 -0.8495
vn 0.3616 -0.5731 0.7353
vn -0.3616 -0.5731 0.7353
vn 0.2893 -0.3879 0.8751
vn -0.2893 -0.3879 0.8751
vn -0.1807 -0.2881 0.9404
vn 0.1807 -0.2881 0.9404
vn -0.1802 0.1550 -0.9713
vn 0.1802 0.1550 -0.9713
vn 0.1690 0.1156 -0.9788
vn -0.1690 0.1156 -0.9788
vn 0.7934 0.0862 -0.6025
vn 0.9417 -0.1408 0.3056
vn 0.8134 -0.2425 0.5287
vn 0.8161 -0.0138 -0.5777
vn -0.9782 -0.1897 -0.0846
vn -0.9995 -0.0133 -0.0295
vn -0.9993 0.0196 -0.0312
vn -0.9537 0.2420 -0.1786
vn 0.9783 -0.1895 0.0837
vn 0.9995 -0.0133 0.0292
vn 0.9993 0.0196 0.0308
vn 0.9542 0.2415 0.1766
vn 0.9965 -0.0018 -0.0835
vn 0.7942 -0.0300 -0.6070
vn 0.9276 -0.1928 -0.3199
vn 0.9980 -0.0105 -0.0616
vn -0.9966 -0.0018 0.0825
vn -0.8020 -0.0297 0.5966
vn -0.9294 -0.1914 0.3155
vn -0.9981 -0.0105 0.0609
vn -0.7942 -0.0300 -0.6070
vn -0.9965 -0.0018 -0.0835
vn -0.9980 -0.0105 -0.0616
vn -0.9276 -0.1928 -0.3199
vn -0.2058 -0.0843 0.9750
vn 0.2058 -0.0843 0.9750
vn 0.3205 -0.7163 0.6199
vn -0.3205 -0.7163 0.6199
vn 0.1728 0.8362 -0.5205
vn -0.1728 0.8362 -0.5205
vn -0.1228 0.7838 -0.6088
vn 0.1228 0.7838 -0.6088
vn -0.1751 0.8363 0.5196
vn 0.1751 0.8363 0.5196
vn 0.1259 0.7854 0.6060
vn -0.1259 0.7854 0.6060
vn 0.9995 -0.0133 -0.0295
vn 0.9782 -0.1897 -0.0846
vn 0.9537 0.2420 -0.1786
vn 0.9993 0.0196 -0.0312
vn -0.2139 -0.9544 -0.2085
vn 0.2139 -0.9544 -0.2085
vn 0.1767 -0.9442 -0.2781
vn -0.1767 -0.9442 -0.2781
vn -0.1782 0.9016 -0.3943
vn 0.1782 0.9016 -0.3943
vn 0.1578 0.8894 -0.4290
vn -0.1578 0.8894 -0.4290
vn -0.9995 -0.0133 0.0292
vn -0.9783 -0.1895 0.0837
vn -0.9542 0.2415 0.1766
vn -0.9993 0.0196 0.0308
vn -0.4410 -0.8819 0.1668
vn 0.4410 -0.8819 0.1668
vn 0.3350 0.6699 0.6626
vn -0.3350 0.6699 0.6626
vn -0.8532 0.4704 0.2254
vn -0.8990 -0.4298 -0.0844
vn -0.8281 -0.5547 -0.0806
vn -0.7817 0.5264 0.3344
vn 0.8990 -0.4298 -0.0844
vn 0.8532 0.4704 0.2254
vn 0.7817 0.5264 0.3344
vn 0.8281 -0.5547 -0.0806
vn 0.1790 0.9016 0.3938
vn -0.1790 0.9016 0.3938
vn -0.1578 0.8894 0.4290
vn 0.1578 0.8894 0.4290
vn 0.4410 -0.8819 -0.1668
vn -0.4410 -0.8819 -0.1668
vn -0.3350 0.6699 -0.6626
vn 0.3350 0.6699 -0.6626
vn 0.8528 0.4708 -0.2260
vn 0.8990 -0.4296 0.0845
vn 0.8281 -0.5547 0.0807
vn 0.7816 0.5265 -0.3345
vn 0.2143 -0.9542 0.2087
vn -0.2143 -0.9542 0.2087
vn -0.1768 -0.9441 0.2782
vn 0.1768 -0.9441 0.2782
vn -0.8990 -0.4296 0.0845
vn -0.8528 0.4708 -0.2260
vn -0.7816 0.5265 -0.3345
vn -0.8281 -0.5547 0.0807
vn 0.3063 0.9516 -0.0268
vn 0.2261 0.9556 -0.1889
vn 0.2084 0.9623 -0.1745
vn 0.2833 0.9587 -0.0248
vn -0.2261 0.9556 -0.1889
vn -0.3063 0.9516 -0.0268
vn -0.2833 0.9587 -0.0248
vn -0.2084 0.9623 -0.1745
vn -0.9923 0.1063 0.0631
vn -0.7952 0.4851 0.3638
vn -0.5364 0.7371 0.4111
vn -0.7319 0.6784 0.0630
vn 0.7952 0.4851 0.3638
vn 0.9923 0.1063 0.0631
vn 0.7319 0.6784 0.0630
vn 0.5364 0.7371 0.4111
vn -0.7910 0.4882 -0.3687
vn -0.9923 0.1064 -0.0638
vn -0.7316 0.6788 -0.0638
vn -0.5304 0.7377 -0.4178
vn 0.9923 0.1064 -0.0638
vn 0.7910 0.4882 -0.3687
vn 0.5304 0.7377 -0.4178
vn 0.7316 0.6788 -0.0638
vn 0.7403 -0.2890 0.6069
vn 0.9534 -0.2899 0.0832
vn 0.8651 -0.4958 0.0759
vn 0.6635 -0.5102 0.5472
vn -0.9534 -0.2899 0.0832
vn -0.7403 -0.2890 0.6069
vn -0.6635 -0.5102 0.5472
vn -0.8651 -0.4958 0.0759
vn -0.0603 0.9467 0.3163
vn 0.0603 0.9467 0.3163
vn 0.0554 0.9550 0.2915
vn -0.0554 0.9550 0.2915
vn 0.0589 0.9459 -0.3192
vn -0.0589 0.9459 -0.3192
vn -0.0542 0.9542 -0.2942
vn 0.0542 0.9542 -0.2942
vn -0.3065 0.9515 0.0265
vn -0.2286 0.9556 0.1856
vn -0.2108 0.9624 0.1715
vn -0.2836 0.9586 0.0246
vn 0.2286 0.9556 0.1856
vn 0.3065 0.9515 0.0265
vn 0.2836 0.9586 0.0246
vn 0.2108 0.9624 0.1715
vn -0.1820 -0.1113 0.9770
vn 0.1820 -0.1113 0.9770
vn 0.1671 0.1347 0.9767
vn -0.1671 0.1347 0.9767
vn 0.9919 -0.0934 -0.0861
vn 0.7601 -0.1116 -0.6402
vn 0.7655 0.2297 -0.6010
vn 0.9454 0.3147 -0.0846
vn -0.7317 -0.2887 -0.6175
vn -0.9533 -0.2901 -0.0843
vn -0.8648 -0.4961 -0.0769
vn -0.6557 -0.5100 -0.5567
vn 0.9533 -0.2901 -0.0843
vn 0.7317 -0.2887 -0.6175
vn 0.6557 -0.5100 -0.5567
vn 0.8648 -0.4961 -0.0769
vn -0.1798 -0.2454 0.9526
vn 0.1798 -0.2454 0.9526
vn 0.1629 -0.4683 0.8684
vn -0.1629 -0.4683 0.8684
vn 0.1743 -0.2433 -0.9542
vn -0.1743 -0.2433 -0.9542
vn -0.1581 -0.4651 -0.8710
vn 0.1581 -0.4651 -0.8710
vn 0.4173 0.9040 0.0928
vn -0.4173 0.9040 0.0928
vn -0.2996 0.7041 0.6438
vn 0.2996 0.7041 0.6438
vn 0.2959 0.6958 -0.6544
vn -0.2959 0.6958 -0.6544
vn -0.4172 0.9039 -0.0940
vn 0.4172 0.9039 -0.0940
vn 0.1763 -0.1108 -0.9781
vn -0.1763 -0.1108 -0.9781
vn -0.1619 0.1301 -0.9782
vn 0.1619 0.1301 -0.9782
vn -0.9920 -0.0933 0.0850
vn -0.7691 -0.1112 0.6294
vn -0.7731 0.2324 0.5901
vn -0.9455 0.3148 0.0836
vn 0.7691 -0.1112 0.6294
vn 0.9920 -0.0933 0.0850
vn 0.9455 0.3148 0.0836
vn 0.7731 0.2324 0.5901
vn -0.7601 -0.1116 -0.6402
vn -0.9919 -0.0934 -0.0861
vn -0.9454 0.3147 -0.0846
vn -0.7655 0.2297 -0.6010
vt 0.375000 0.127049
vt 0.496528 0.126423
vt 0.499132 0.191100
vt 0.413194 0.191157
vt 0.583333 0.126366
vt 0.583333 0.191086
vt 0.583333 0.271175
vt 0.500000 0.271175
vt 0.416667 0.271175
vt 0.500000 0.375000
vt 0.416667 0.375000
vt 0.583333 0.375000
vt 0.583333 0.478825
vt 0.500000 0.478825
vt 0.416667 0.478825
vt 0.375000 0.623323
vt 0.496528 0.623602
vt 0.499132 0.689114
vt 0.412326 0.689518
vt 0.583333 0.623634
vt 0.583333 0.689122
vt 0.583333 0.770492
vt 0.500000 0.770492
vt 0.416667 0.770492
vt 0.500000 0.877562
vt 0.413194 0.877562
vt 0.586806 0.877562
vt 0.625000 1.000000
vt 0.500000 1.000000
vt 0.375000 1.000000
vt 0.370853 0.691165
vt 0.334105 0.644200
vt 0.379340 0.768784
vt 0.375000 0.750000
vt 0.333237 0.690922
vt 0.312500 0.654713
vt 0.619792 0.688969
vt 0.619792 0.769877
vt 0.619792 0.623634
vt 0.625000 0.623634
vt 0.625000 0.687639
vt 0.625000 0.764754
vt 0.619792 0.375000
vt 0.619792 0.479460
vt 0.619792 0.270540
vt 0.625000 0.265246
vt 0.625000 0.375000
vt 0.625000 0.484754
vt 0.379340 0.190730
vt 0.375000 0.127049
vt 0.380208 0.269410
vt 0.375000 0.250000
vt 0.375000 0.188525
vt 0.375000 0.127049
vt 0.499132 0.558906
vt 0.412326 0.558441
vt 0.583333 0.558914
vt 0.375000 0.000000
vt 0.500000 0.000000
vt 0.499132 0.063453
vt 0.409722 0.063510
vt 0.625000 0.000000
vt 0.586806 0.063439
vt 0.125000 0.622951
vt 0.242091 0.644175
vt 0.244985 0.689024
vt 0.125000 0.686475
vt 0.250000 0.750000
vt 0.125000 0.750000
vt 0.379340 0.877135
vt 0.375000 1.000000
vt 0.375000 1.000000
vt 0.375000 0.875000
vt 0.248264 0.622990
vt 0.244985 0.627270
vt 0.125000 0.622951
vt 0.378472 0.063525
vt 0.375000 0.000000
vt 0.375000 0.063525
vt 0.375000 0.000000
vt 0.125000 0.500000
vt 0.250000 0.500000
vt 0.244985 0.559009
vt 0.125000 0.561475
vt 0.375000 0.500000
vt 0.333237 0.557145
vt 0.312500 0.592213
vt 0.242091 0.602412
vt 0.244985 0.618783
vt 0.334105 0.602437
vt 0.380208 0.375000
vt 0.379340 0.480590
vt 0.375000 0.375000
vt 0.370853 0.556809
vt 0.625000 0.189583
vt 0.625000 0.187014
vt 0.625000 0.234921
vt 0.625000 0.126366
vt 0.625000 0.188012
vt 0.625000 0.250000
vt 0.625556 0.684787
vt 0.628090 0.733186
vt 0.628090 0.684549
vt 0.655000 0.734754
vt 0.619792 0.559073
vt 0.625000 0.560417
vt 0.620660 0.063439
vt 0.619792 0.126366
vt 0.625000 0.000000
vt 0.625000 0.063880
vt 0.619792 0.190927
vt 0.620660 0.877408
vt 0.625000 1.000000
vt 0.625000 0.877388
vt 0.655000 0.514754
vt 0.753958 0.501520
vt 0.754896 0.502408
vt 0.665417 0.519877
vt 0.875000 0.500000
vt 0.875000 0.500000
vt 0.755208 0.502561
vt 0.666667 0.520492
vt 0.875000 0.750000
vt 0.753958 0.748430
vt 0.754896 0.747512
vt 0.875000 0.750000
vt 0.665417 0.729460
vt 0.666667 0.728825
vt 0.755208 0.747353
vt 0.625556 0.563259
vt 0.628090 0.516172
vt 0.628090 0.563507
vt 0.625000 0.880289
vt 0.625000 0.792415
vt 0.625000 0.812500
vt 0.625000 0.882909
vt 0.754028 0.500273
vt 0.661945 0.500652
vt 0.625000 0.500000
vt 0.750000 0.500000
vt 0.625000 0.065204
vt 0.625000 0.017646
vt 0.625000 0.880015
vt 0.625868 0.791763
vt 0.625000 0.750000
vt 0.625000 0.875000
vt 0.625000 0.001765
vt 0.629028 0.756714
vt 0.661945 0.749298
vt 0.754028 0.749718
vt 0.875000 0.750000
vt 0.750000 0.750000
vt 0.625000 0.437500
vt 0.625000 0.375000
vt 0.625868 0.458237
vt 0.625000 0.312500
vt 0.625000 0.291763
vt 0.629028 0.493211
vt 0.625000 0.457534
vt 0.625000 0.292466
vt 0.625000 0.257062
vt 0.625000 0.250000
vt 0.630208 0.564122
vt 0.630208 0.564122
vt 0.625000 0.623634
vt 0.666667 0.520492
vt 0.625000 0.188439
vt 0.625000 0.188439
vt 0.625000 0.063439
vt 0.629896 0.684073
vt 0.630208 0.683914
vt 0.629896 0.563969
vt 0.666667 0.728825
vt 0.630208 0.683914
vt 0.630208 0.683914
vt 0.666667 0.728825
vt 0.755208 0.502562
vt 0.755884 0.745246
vt 0.670235 0.727012
vt 0.687500 0.718238
vt 0.757909 0.728776
vt 0.630208 0.564122
vt 0.635224 0.564454
vt 0.630208 0.623634
vt 0.670235 0.522247
vt 0.687500 0.530738
vt 0.670235 0.565450
vt 0.666667 0.623634
vt 0.755208 0.623577
vt 0.755884 0.683998
vt 0.670235 0.682541
vt 0.875000 0.622951
vt 0.875000 0.686475
vt 0.757909 0.520539
vt 0.755884 0.564013
vt 0.875000 0.561475
vt 0.755884 0.504601
vt 0.625000 0.063453
vt 0.625000 0.126423
vt 0.625000 0.063525
vt 0.625000 0.127049
vt 0.635224 0.683571
vt 0.625000 0.188453
vt 0.625000 0.188525
s 0
f 9/1/1 84/2/1 189/3/1 77/4/1
f 84/2/2 10/5/2 67/6/2 189/3/2
f 189/3/3 67/6/3 4/7/3 68/8/3
f 77/4/4 189/3/4 68/8/4 3/9/4
f 3/9/5 68/8/5 190/10/5 69/11/5
f 68/8/6 4/7/6 70/12/6 190/10/6
f 190/10/7 70/12/7 8/13/7 71/14/7
f 69/11/8 190/10/8 71/14/8 7/15/8
f 11/16/9 83/17/9 191/18/9 79/19/9
f 83/17/10 12/20/10 73/21/10 191/18/10
f 191/18/11 73/21/11 6/22/11 74/23/11
f 79/19/12 191/18/12 74/23/12 5/24/12
f 5/24/13 74/23/13 192/25/13 75/26/13
f 74/23/14 6/22/14 76/27/14 192/25/14
f 192/25/15 76/27/15 2/28/15 66/29/15
f 75/26/16 192/25/16 66/29/16 1/30/16
f 11/16/17 79/19/17 193/31/17 90/32/17
f 79/19/18 5/24/18 89/33/18 193/31/18
f 193/31/19 89/33/19 14/34/19 87/35/19
f 90/32/20 193/31/20 87/35/20 16/36/20
f 6/22/21 73/21/21 194/37/21 110/38/21
f 73/21/22 12/20/22 109/39/22 194/37/22
f 194/37/23 109/39/23 26/40/23 103/41/23
f 110/38/24 194/37/24 103/41/24 23/42/24
f 8/13/25 70/12/25 195/43/25 108/44/25
f 70/12/26 4/7/26 81/45/26 195/43/26
f 195/43/27 81/45/27 22/46/27 102/47/27
f 108/44/28 195/43/28 102/47/28 24/48/28
f 9/1/29 77/4/29 196/49/29 98/50/29
f 77/4/30 3/9/30 97/51/30 196/49/30
f 196/49/31 97/51/31 17/52/31 95/53/31
f 98/50/32 196/49/32 95/53/32 19/54/32
f 7/15/33 71/14/33 197/55/33 72/56/33
f 71/14/34 8/13/34 80/57/34 197/55/34
f 197/55/35 80/57/35 12/20/35 83/17/35
f 72/56/36 197/55/36 83/17/36 11/16/36
f 1/58/37 66/59/37 198/60/37 65/61/37
f 66/59/38 2/62/38 78/63/38 198/60/38
f 198/60/39 78/63/39 10/5/39 84/2/39
f 65/61/40 198/60/40 84/2/40 9/1/40
f 15/64/41 88/65/41 199/66/41 85/67/41
f 88/65/42 16/36/42 87/35/42 199/66/42
f 199/66/43 87/35/43 14/34/43 86/68/43
f 85/67/44 199/66/44 86/68/44 13/69/44
f 5/24/45 75/26/45 200/70/45 89/33/45
f 75/26/46 1/30/46 91/71/46 200/70/46
f 200/70/47 91/71/47 13/72/47 86/73/47
f 89/33/48 200/70/48 86/73/48 14/34/48
f 9/64/49 82/74/49 201/75/49 92/76/49
f 82/74/50 11/16/50 90/32/50 201/75/50
f 201/75/51 90/32/51 16/36/51 88/65/51
f 92/76/52 201/75/52 88/65/52 15/64/52
f 1/58/53 65/61/53 202/77/53 91/78/53
f 65/61/54 9/1/54 92/50/54 202/77/54
f 202/77/55 92/50/55 15/54/55 85/79/55
f 91/78/56 202/77/56 85/79/56 13/80/56
f 17/81/57 93/82/57 203/83/57 95/84/57
f 93/82/58 18/85/58 94/86/58 203/83/58
f 203/83/59 94/86/59 20/87/59 96/88/59
f 95/84/60 203/83/60 96/88/60 19/64/60
f 11/16/61 82/74/61 204/89/61 99/90/61
f 82/74/62 9/64/62 98/76/62 204/89/62
f 204/89/63 98/76/63 19/64/63 96/88/63
f 99/90/64 204/89/64 96/88/64 20/87/64
f 3/9/65 69/11/65 205/91/65 97/51/65
f 69/11/66 7/15/66 100/92/66 205/91/66
f 205/91/67 100/92/67 18/85/67 93/93/67
f 97/51/68 205/91/68 93/93/68 17/52/68
f 7/15/69 72/56/69 206/94/69 100/92/69
f 72/56/70 11/16/70 99/90/70 206/94/70
f 206/94/71 99/90/71 20/87/71 94/86/71
f 100/92/72 206/94/72 94/86/72 18/85/72
f 22/46/73 101/95/73 207/96/73 122/97/73
f 101/95/74 25/98/74 121/98/74 207/96/74
f 207/96/75 121/98/75 31/98/75 113/99/75
f 122/97/76 207/96/76 113/99/76 28/100/76
f 23/42/77 103/41/77 208/101/77 120/102/77
f 103/41/78 26/40/78 107/40/78 208/101/78
f 208/101/79 107/40/79 32/40/79 115/103/79
f 120/102/80 208/101/80 115/103/80 29/104/80
f 12/20/81 80/57/81 209/105/81 109/39/81
f 80/57/82 8/13/82 108/44/82 209/105/82
f 209/105/83 108/44/83 24/48/83 106/106/83
f 109/39/84 209/105/84 106/106/84 26/40/84
f 10/5/85 78/63/85 210/107/85 112/108/85
f 78/63/86 2/62/86 111/109/86 210/107/86
f 210/107/87 111/109/87 21/62/87 105/110/87
f 112/108/88 210/107/88 105/110/88 25/98/88
f 4/7/89 67/6/89 211/111/89 81/45/89
f 67/6/90 10/5/90 112/108/90 211/111/90
f 211/111/91 112/108/91 25/98/91 101/95/91
f 81/45/92 211/111/92 101/95/92 22/46/92
f 2/28/93 76/27/93 212/112/93 111/113/93
f 76/27/94 6/22/94 110/38/94 212/112/94
f 212/112/95 110/38/95 23/42/95 104/114/95
f 111/113/96 212/112/96 104/114/96 21/28/96
f 30/115/97 114/116/97 213/117/97 150/118/97
f 114/116/98 28/119/98 149/120/98 213/117/98
f 213/117/99 149/120/99 42/119/99 142/121/99
f 150/118/100 213/117/100 142/121/100 44/122/100
f 27/123/101 116/124/101 214/125/101 148/126/101
f 116/124/102 29/104/102 119/127/102 214/125/102
f 214/125/103 119/127/103 43/128/103 144/129/103
f 148/126/104 214/125/104 144/129/104 41/123/104
f 26/40/105 106/106/105 215/130/105 107/40/105
f 106/106/106 24/48/106 123/131/106 215/130/106
f 215/130/107 123/131/107 30/115/107 118/132/107
f 107/40/108 215/130/108 118/132/108 32/40/108
f 21/28/109 104/114/109 216/133/109 130/113/109
f 104/114/110 23/42/110 129/134/110 216/133/110
f 216/133/111 129/134/111 34/135/111 125/136/111
f 130/113/112 216/133/112 125/136/112 33/28/112
f 28/119/113 114/116/113 217/137/113 138/120/113
f 114/116/114 30/115/114 137/138/114 217/137/114
f 217/137/115 137/138/115 40/139/115 134/140/115
f 138/120/116 217/137/116 134/140/116 39/120/116
f 25/98/117 105/110/117 218/141/117 121/98/117
f 105/110/118 21/62/118 124/142/118 218/141/118
f 218/141/119 124/142/119 27/62/119 117/110/119
f 121/98/120 218/141/120 117/110/120 31/98/120
f 33/28/121 125/136/121 219/143/121 128/113/121
f 125/136/122 34/135/122 127/144/122 219/143/122
f 219/143/123 127/144/123 36/145/123 126/146/123
f 128/113/124 219/143/124 126/146/124 35/113/124
f 27/62/125 124/142/125 220/147/125 131/109/125
f 124/142/126 21/62/126 130/109/126 220/147/126
f 220/147/127 130/109/127 33/109/127 128/109/127
f 131/109/128 220/147/128 128/109/128 35/109/128
f 23/42/129 120/102/129 221/148/129 129/134/129
f 120/102/130 29/104/130 132/149/130 221/148/130
f 221/148/131 132/149/131 36/145/131 127/144/131
f 129/134/132 221/148/132 127/144/132 34/135/132
f 29/104/133 116/124/133 222/150/133 132/149/133
f 116/124/134 27/123/134 131/126/134 222/150/134
f 222/150/135 131/126/135 35/151/135 126/152/135
f 132/149/136 222/150/136 126/152/136 36/145/136
f 38/153/137 133/47/137 223/154/137 136/155/137
f 133/47/138 37/156/138 135/157/138 223/154/138
f 223/154/139 135/157/139 39/100/139 134/154/139
f 136/155/140 223/154/140 134/154/140 40/139/140
f 30/115/141 123/131/141 224/158/141 137/138/141
f 123/131/142 24/48/142 139/159/142 224/158/142
f 224/158/143 139/159/143 38/153/143 136/155/143
f 137/138/144 224/158/144 136/155/144 40/139/144
f 24/48/145 102/47/145 225/47/145 139/159/145
f 102/47/146 22/46/146 140/160/146 225/47/146
f 225/47/147 140/160/147 37/156/147 133/47/147
f 139/159/148 225/47/148 133/47/148 38/153/148
f 22/46/149 122/97/149 226/161/149 140/160/149
f 122/97/150 28/100/150 138/162/150 226/161/150
f 226/161/151 138/162/151 39/100/151 135/157/151
f 140/160/152 226/161/152 135/157/152 37/156/152
f 46/40/153 146/163/153 227/164/153 162/165/153
f 146/163/154 44/122/154 161/122/154 227/164/154
f 227/164/155 161/122/155 50/166/155 158/163/155
f 162/165/156 227/164/156 158/163/156 52/40/156
f 42/100/157 141/167/157 228/168/157 160/162/157
f 141/167/158 45/98/158 147/98/158 228/168/158
f 228/168/159 147/98/159 51/98/159 153/168/159
f 160/162/160 228/168/160 153/168/160 48/100/160
f 31/98/161 117/110/161 229/169/161 151/98/161
f 117/110/162 27/62/162 148/109/162 229/169/162
f 229/169/163 148/109/163 41/62/163 145/169/163
f 151/98/164 229/169/164 145/169/164 45/98/164
f 29/104/165 115/103/165 230/170/165 119/127/165
f 115/103/166 32/40/166 152/40/166 230/170/166
f 230/170/167 152/40/167 46/40/167 143/171/167
f 119/127/168 230/170/168 143/171/168 43/128/168
f 28/100/169 113/99/169 231/168/169 149/162/169
f 113/99/170 31/98/170 151/98/170 231/168/170
f 231/168/171 151/98/171 45/98/171 141/167/171
f 149/162/172 231/168/172 141/167/172 42/100/172
f 32/40/173 118/132/173 232/172/173 152/40/173
f 118/132/174 30/115/174 150/118/174 232/172/174
f 232/172/175 150/118/175 44/122/175 146/163/175
f 152/40/176 232/172/176 146/163/176 46/40/176
f 49/173/177 155/174/177 233/175/177 174/176/177
f 155/174/178 52/40/178 173/165/178 233/175/178
f 233/175/179 173/165/179 58/40/179 167/174/179
f 174/176/180 233/175/180 167/174/180 55/173/180
f 51/98/181 157/169/181 234/169/181 172/98/181
f 157/169/182 47/62/182 159/109/182 234/169/182
f 234/169/183 159/109/183 53/62/183 169/169/183
f 172/98/184 234/169/184 169/169/184 57/98/184
f 41/123/185 144/129/185 235/129/185 164/126/185
f 144/129/186 43/128/186 163/128/186 235/129/186
f 235/129/187 163/128/187 49/173/187 156/129/187
f 164/126/188 235/129/188 156/129/188 47/123/188
f 44/122/189 142/121/189 236/177/189 161/122/189
f 142/121/190 42/119/190 160/120/190 236/177/190
f 236/177/191 160/120/191 48/119/191 154/177/191
f 161/122/192 236/177/192 154/177/192 50/166/192
f 45/98/193 145/169/193 237/169/193 147/98/193
f 145/169/194 41/62/194 164/109/194 237/169/194
f 237/169/195 164/109/195 47/62/195 157/169/195
f 147/98/196 237/169/196 157/169/196 51/98/196
f 43/128/197 143/171/197 238/175/197 163/128/197
f 143/171/198 46/40/198 162/165/198 238/175/198
f 238/175/199 162/165/199 52/40/199 155/174/199
f 163/128/200 238/175/200 155/174/200 49/173/200
f 53/123/201 168/129/201 239/178/201 186/126/201
f 168/129/202 55/173/202 185/179/202 239/178/202
f 239/178/203 185/179/203 61/180/203 180/181/203
f 186/126/204 239/178/204 180/181/204 59/123/204
f 58/40/205 170/182/205 240/183/205 184/184/205
f 170/182/206 56/122/206 171/185/206 240/183/206
f 240/183/207 171/185/207 62/186/207 182/187/207
f 184/184/208 240/183/208 182/187/208 64/188/208
f 48/100/209 153/168/209 241/168/209 175/162/209
f 153/168/210 51/98/210 172/98/210 241/168/210
f 241/168/211 172/98/211 57/98/211 165/167/211
f 175/162/212 241/168/212 165/167/212 54/100/212
f 52/40/213 158/163/213 242/164/213 173/165/213
f 158/163/214 50/166/214 176/122/214 242/164/214
f 242/164/215 176/122/215 56/122/215 170/182/215
f 173/165/216 242/164/216 170/182/216 58/40/216
f 47/123/217 156/129/217 243/129/217 159/126/217
f 156/129/218 49/173/218 174/176/218 243/129/218
f 243/129/219 174/176/219 55/173/219 168/129/219
f 159/126/220 243/129/220 168/129/220 53/123/220
f 50/166/221 154/177/221 244/177/221 176/122/221
f 154/177/222 48/119/222 175/120/222 244/177/222
f 244/177/223 175/120/223 54/119/223 166/177/223
f 176/122/224 244/177/224 166/177/224 56/122/224
f 64/188/225 183/189/225 245/190/225 179/191/225
f 183/189/226 63/192/226 181/193/226 245/190/226
f 245/190/227 181/193/227 59/123/227 180/181/227
f 179/191/228 245/190/228 180/181/228 61/180/228
f 62/186/229 178/194/229 246/195/229 182/187/229
f 178/194/230 60/119/230 177/196/230 246/195/230
f 246/195/231 177/196/231 63/192/231 183/189/231
f 182/187/232 246/195/232 183/189/232 64/188/232
f 56/122/233 166/177/233 247/197/233 171/185/233
f 166/177/234 54/119/234 187/120/234 247/197/234
f 247/197/235 187/120/235 60/119/235 178/194/235
f 171/185/236 247/197/236 178/194/236 62/186/236
f 57/98/237 169/169/237 248/198/237 188/199/237
f 169/169/238 53/62/238 186/109/238 248/198/238
f 248/198/239 186/109/239 59/109/239 181/200/239
f 188/199/240 248/198/240 181/200/240 63/201/240
f 55/173/241 167/174/241 249/202/241 185/179/241
f 167/174/242 58/40/242 184/184/242 249/202/242
f 249/202/243 184/184/243 64/188/243 179/191/243
f 185/179/244 249/202/244 179/191/244 61/180/244
f 54/100/245 165/167/245 250/203/245 187/162/245
f 165/167/246 57/98/246 188/199/246 250/203/246
f 250/203/247 188/199/247 63/201/247 177/204/247
f 187/162/248 250/203/248 177/204/248 60/162/248
